<svg xmlns="http://www.w3.org/2000/svg" xmlns:xlink="http://www.w3.org/1999/xlink" width="940" height="477.62"><rect width="940" height="477.62" rx="0" ry="0" class="a"/><svg height="477.62" viewBox="0 0 94 47.762" width="940" xmlns="http://www.w3.org/2000/svg" xmlns:xlink="http://www.w3.org/1999/xlink"><style>@keyframes h{0%{transform:translateX(0)}.4%{transform:translateX(-376px)}8%{transform:translateX(-470px)}8.6%{transform:translateX(-564px)}10.4%{transform:translateX(-658px)}11.8%{transform:translateX(-752px)}12.5%{transform:translateX(-846px)}13.1%{transform:translateX(-940px)}14.2%{transform:translateX(-1034px)}15.4%{transform:translateX(-1128px)}16.2%{transform:translateX(-1222px)}16.4%{transform:translateX(-1316px)}19.2%{transform:translateX(-1410px)}22.8%{transform:translateX(-1504px)}23.8%{transform:translateX(-1598px)}24.4%{transform:translateX(-1692px)}24.7%{transform:translateX(-1786px)}26%{transform:translateX(-1880px)}26.5%{transform:translateX(-1974px)}27.4%{transform:translateX(-2068px)}27.9%{transform:translateX(-2162px)}28.7%{transform:translateX(-2256px)}29.5%{transform:translateX(-2350px)}30.3%{transform:translateX(-2444px)}31%{transform:translateX(-2538px)}32.4%{transform:translateX(-2632px)}36.8%{transform:translateX(-2726px)}38.2%{transform:translateX(-2820px)}38.8%{transform:translateX(-2914px)}39.6%{transform:translateX(-3008px)}40.1%{transform:translateX(-3102px)}41.8%{transform:translateX(-3196px)}43.4%{transform:translateX(-3290px)}44.1%{transform:translateX(-3384px)}44.9%{transform:translateX(-3478px)}45.2%{transform:translateX(-3572px)}46.1%{transform:translateX(-3666px)}49.2%{transform:translateX(-4042px)}58.4%{transform:translateX(-4136px)}59.2%{transform:translateX(-4230px)}59.7%{transform:translateX(-4324px)}61.3%{transform:translateX(-4418px)}62.6%{transform:translateX(-4512px)}63.6%{transform:translateX(-4606px)}64%{transform:translateX(-4700px)}64.4%{transform:translateX(-4794px)}65.3%{transform:translateX(-4888px)}66.7%{transform:translateX(-4982px)}67.8%{transform:translateX(-5076px)}68.2%{transform:translateX(-5170px)}68.8%{transform:translateX(-5264px)}69.7%{transform:translateX(-5358px)}70.6%{transform:translateX(-5452px)}73.7%{transform:translateX(-5546px)}73.8%{transform:translateX(-5640px)}73.9%{transform:translateX(-5828px)}74.1%{transform:translateX(-6016px)}82%{transform:translateX(-6110px)}83.1%{transform:translateX(-6204px)}83.8%{transform:translateX(-6298px)}to{transform:translateX(-6392px)}}.a{fill:#282d35}.c{fill:#66c2cd}.c,.d,.e{white-space:pre}.d{fill:#a8cc8c;font-weight:700}.e{fill:#b9c0cb}</style><g font-family="Monaco,Consolas,Menlo,'Bitstream Vera Sans Mono','Powerline Symbols',monospace" font-size="1.67"><defs><symbol id="1"><text y="1.67" class="c">[~]</text><text x="3.006" y="1.67" class="d">$</text></symbol><symbol id="2"><text y="1.67" class="c">[~]</text><text x="3.006" y="1.67" class="d">$</text><text x="5.01" y="1.67" class="e">LD_PRELOAD=libdesock.so</text></symbol><symbol id="3"><text y="1.67" class="c">[~]</text><text x="3.006" y="1.67" class="d">$</text><text x="5.01" y="1.67" class="e">LD_PRELOAD=libdesock.so</text><text x="29.058" y="1.67" class="e">/sbin/nginx</text></symbol><symbol id="4"><text y="1.67" class="e">[346131]</text><text x="9.018" y="1.67" class="e">desock::epoll_create(100)</text><text x="35.07" y="1.67" class="e">=</text><text x="37.074" y="1.67" class="e">5</text></symbol><symbol id="5"><text y="1.67" class="e">[346131]</text><text x="9.018" y="1.67" class="e">desock::socket(2,</text><text x="27.054" y="1.67" class="e">1,</text><text x="30.06" y="1.67" class="e">0)</text><text x="33.066" y="1.67" class="e">=</text><text x="35.07" y="1.67" class="e">5</text></symbol><symbol id="6"><text y="1.67" class="e">[346131]</text><text x="9.018" y="1.67" class="e">desock::bind(5,</text><text x="25.05" y="1.67" class="e">0x629000015638,</text><text x="41.082" y="1.67" class="e">16)</text><text x="45.09" y="1.67" class="e">=</text><text x="47.094" y="1.67" class="e">0</text></symbol><symbol id="7"><text y="1.67" class="e">[346131]</text><text x="9.018" y="1.67" class="e">desock::listen(5,</text><text x="27.054" y="1.67" class="e">511)</text><text x="32.064" y="1.67" class="e">=</text><text x="34.068" y="1.67" class="e">0</text></symbol><symbol id="8"><text y="1.67" class="e">GET</text></symbol><symbol id="9"><text y="1.67" class="e">GET</text><text x="4.008" y="1.67" class="e">whatever...</text></symbol><symbol id="10"><text y="1.67" class="e">HTTP/1.1</text><text x="9.018" y="1.67" class="e">400</text><text x="13.026" y="1.67" class="e">Bad</text><text x="17.034" y="1.67" class="e">Request</text></symbol><symbol id="11"><text y="1.67" class="e">Server:</text><text x="8.016" y="1.67" class="e">nginx/1.21.1</text></symbol><symbol id="12"><text y="1.67" class="e">Date:</text><text x="6.012" y="1.67" class="e">Thu,</text><text x="11.022" y="1.67" class="e">11</text><text x="14.028" y="1.67" class="e">Nov</text><text x="18.036" y="1.67" class="e">2021</text><text x="23.046" y="1.67" class="e">16:50:34</text><text x="32.064" y="1.67" class="e">GMT</text></symbol><symbol id="13"><text y="1.67" class="e">Content-Type:</text><text x="14.028" y="1.67" class="e">text/html</text></symbol><symbol id="14"><text y="1.67" class="e">Content-Length:</text><text x="16.032" y="1.67" class="e">157</text></symbol><symbol id="15"><text y="1.67" class="e">Connection:</text><text x="12.024" y="1.67" class="e">close</text></symbol><symbol id="16"><text y="1.67" class="e">&lt;html&gt;</text></symbol><symbol id="17"><text y="1.67" class="e">&lt;head&gt;&lt;title&gt;400</text><text x="17.034" y="1.67" class="e">Bad</text><text x="21.042" y="1.67" class="e">Request&lt;/title&gt;&lt;/head&gt;</text></symbol><symbol id="18"><text y="1.67" class="e">&lt;body&gt;</text></symbol><symbol id="19"><text y="1.67" class="e">&lt;center&gt;&lt;h1&gt;400</text><text x="16.032" y="1.67" class="e">Bad</text><text x="20.04" y="1.67" class="e">Request&lt;/h1&gt;&lt;/center&gt;</text></symbol><symbol id="20"><text y="1.67" class="e">&lt;hr&gt;&lt;center&gt;nginx/1.21.1&lt;/center&gt;</text></symbol><symbol id="21"><text y="1.67" class="e">&lt;/body&gt;</text></symbol><symbol id="22"><text y="1.67" class="e">&lt;/html&gt;</text></symbol><symbol id="a"><path fill="transparent" d="M0 0h94v23H0z"/></symbol><symbol id="b"><path fill="#6f7683" d="M0 0h1.102v2.171H0z"/></symbol></defs><path class="a" d="M0 0h94v47.762H0z"/><g style="animation-duration:13.019287s;animation-iteration-count:infinite;animation-name:h;animation-timing-function:steps(1,end)"><svg width="6486"><svg><use xlink:href="#a"/><use xlink:href="#b" x="-.004"/></svg><svg x="94"><use xlink:href="#a"/><use xlink:href="#b" x="-.004"/></svg><svg x="188"><use xlink:href="#a"/><use xlink:href="#b" x="-.004"/></svg><svg x="282"><use xlink:href="#a"/><use xlink:href="#b" x="4.996"/><use xlink:href="#1"/></svg><svg x="376"><use xlink:href="#a"/><use xlink:href="#b" x="4.996"/><use xlink:href="#1"/></svg><svg x="470"><use xlink:href="#a"/><use xlink:href="#b" x="5.996"/><text y="1.67" class="c">[~]</text><text x="3.006" y="1.67" class="d">$</text><text x="5.01" y="1.67" class="e">L</text></svg><svg x="564"><use xlink:href="#a"/><use xlink:href="#b" x="6.996"/><text y="1.67" class="c">[~]</text><text x="3.006" y="1.67" class="d">$</text><text x="5.01" y="1.67" class="e">LD</text></svg><svg x="658"><use xlink:href="#a"/><use xlink:href="#b" x="7.996"/><text y="1.67" class="c">[~]</text><text x="3.006" y="1.67" class="d">$</text><text x="5.01" y="1.67" class="e">LD_</text></svg><svg x="752"><use xlink:href="#a"/><use xlink:href="#b" x="8.996"/><text y="1.67" class="c">[~]</text><text x="3.006" y="1.67" class="d">$</text><text x="5.01" y="1.67" class="e">LD_P</text></svg><svg x="846"><use xlink:href="#a"/><use xlink:href="#b" x="9.996"/><text y="1.67" class="c">[~]</text><text x="3.006" y="1.67" class="d">$</text><text x="5.01" y="1.67" class="e">LD_PR</text></svg><svg x="940"><use xlink:href="#a"/><use xlink:href="#b" x="10.996"/><text y="1.67" class="c">[~]</text><text x="3.006" y="1.67" class="d">$</text><text x="5.01" y="1.67" class="e">LD_PRE</text></svg><svg x="1034"><use xlink:href="#a"/><use xlink:href="#b" x="11.996"/><text y="1.67" class="c">[~]</text><text x="3.006" y="1.67" class="d">$</text><text x="5.01" y="1.67" class="e">LD_PREL</text></svg><svg x="1128"><use xlink:href="#a"/><use xlink:href="#b" x="12.996"/><text y="1.67" class="c">[~]</text><text x="3.006" y="1.67" class="d">$</text><text x="5.01" y="1.67" class="e">LD_PRELO</text></svg><svg x="1222"><use xlink:href="#a"/><use xlink:href="#b" x="13.996"/><text y="1.67" class="c">[~]</text><text x="3.006" y="1.67" class="d">$</text><text x="5.01" y="1.67" class="e">LD_PRELOA</text></svg><svg x="1316"><use xlink:href="#a"/><use xlink:href="#b" x="14.996"/><text y="1.67" class="c">[~]</text><text x="3.006" y="1.67" class="d">$</text><text x="5.01" y="1.67" class="e">LD_PRELOAD</text></svg><svg x="1410"><use xlink:href="#a"/><use xlink:href="#b" x="15.996"/><text y="1.67" class="c">[~]</text><text x="3.006" y="1.67" class="d">$</text><text x="5.01" y="1.67" class="e">LD_PRELOAD=</text></svg><svg x="1504"><use xlink:href="#a"/><use xlink:href="#b" x="16.996"/><text y="1.67" class="c">[~]</text><text x="3.006" y="1.67" class="d">$</text><text x="5.01" y="1.67" class="e">LD_PRELOAD=l</text></svg><svg x="1598"><use xlink:href="#a"/><use xlink:href="#b" x="17.996"/><text y="1.67" class="c">[~]</text><text x="3.006" y="1.67" class="d">$</text><text x="5.01" y="1.67" class="e">LD_PRELOAD=li</text></svg><svg x="1692"><use xlink:href="#a"/><use xlink:href="#b" x="18.996"/><text y="1.67" class="c">[~]</text><text x="3.006" y="1.67" class="d">$</text><text x="5.01" y="1.67" class="e">LD_PRELOAD=lib</text></svg><svg x="1786"><use xlink:href="#a"/><use xlink:href="#b" x="19.996"/><text y="1.67" class="c">[~]</text><text x="3.006" y="1.67" class="d">$</text><text x="5.01" y="1.67" class="e">LD_PRELOAD=libd</text></svg><svg x="1880"><use xlink:href="#a"/><use xlink:href="#b" x="20.996"/><text y="1.67" class="c">[~]</text><text x="3.006" y="1.67" class="d">$</text><text x="5.01" y="1.67" class="e">LD_PRELOAD=libde</text></svg><svg x="1974"><use xlink:href="#a"/><use xlink:href="#b" x="21.996"/><text y="1.67" class="c">[~]</text><text x="3.006" y="1.67" class="d">$</text><text x="5.01" y="1.67" class="e">LD_PRELOAD=libdes</text></svg><svg x="2068"><use xlink:href="#a"/><use xlink:href="#b" x="22.996"/><text y="1.67" class="c">[~]</text><text x="3.006" y="1.67" class="d">$</text><text x="5.01" y="1.67" class="e">LD_PRELOAD=libdeso</text></svg><svg x="2162"><use xlink:href="#a"/><use xlink:href="#b" x="23.996"/><text y="1.67" class="c">[~]</text><text x="3.006" y="1.67" class="d">$</text><text x="5.01" y="1.67" class="e">LD_PRELOAD=libdesoc</text></svg><svg x="2256"><use xlink:href="#a"/><use xlink:href="#b" x="24.996"/><text y="1.67" class="c">[~]</text><text x="3.006" y="1.67" class="d">$</text><text x="5.01" y="1.67" class="e">LD_PRELOAD=libdesock</text></svg><svg x="2350"><use xlink:href="#a"/><use xlink:href="#b" x="25.996"/><text y="1.67" class="c">[~]</text><text x="3.006" y="1.67" class="d">$</text><text x="5.01" y="1.67" class="e">LD_PRELOAD=libdesock.</text></svg><svg x="2444"><use xlink:href="#a"/><use xlink:href="#b" x="26.996"/><text y="1.67" class="c">[~]</text><text x="3.006" y="1.67" class="d">$</text><text x="5.01" y="1.67" class="e">LD_PRELOAD=libdesock.s</text></svg><svg x="2538"><use xlink:href="#a"/><use xlink:href="#b" x="27.996"/><use xlink:href="#2"/></svg><svg x="2632"><use xlink:href="#a"/><use xlink:href="#b" x="28.996"/><use xlink:href="#2"/></svg><svg x="2726"><use xlink:href="#a"/><use xlink:href="#b" x="29.996"/><text y="1.67" class="c">[~]</text><text x="3.006" y="1.67" class="d">$</text><text x="5.01" y="1.67" class="e">LD_PRELOAD=libdesock.so</text><text x="29.058" y="1.67" class="e">/</text></svg><svg x="2820"><use xlink:href="#a"/><use xlink:href="#b" x="30.996"/><text y="1.67" class="c">[~]</text><text x="3.006" y="1.67" class="d">$</text><text x="5.01" y="1.67" class="e">LD_PRELOAD=libdesock.so</text><text x="29.058" y="1.67" class="e">/s</text></svg><svg x="2914"><use xlink:href="#a"/><use xlink:href="#b" x="31.996"/><text y="1.67" class="c">[~]</text><text x="3.006" y="1.67" class="d">$</text><text x="5.01" y="1.67" class="e">LD_PRELOAD=libdesock.so</text><text x="29.058" y="1.67" class="e">/sb</text></svg><svg x="3008"><use xlink:href="#a"/><use xlink:href="#b" x="32.996"/><text y="1.67" class="c">[~]</text><text x="3.006" y="1.67" class="d">$</text><text x="5.01" y="1.67" class="e">LD_PRELOAD=libdesock.so</text><text x="29.058" y="1.67" class="e">/sbi</text></svg><svg x="3102"><use xlink:href="#a"/><use xlink:href="#b" x="33.996"/><text y="1.67" class="c">[~]</text><text x="3.006" y="1.67" class="d">$</text><text x="5.01" y="1.67" class="e">LD_PRELOAD=libdesock.so</text><text x="29.058" y="1.67" class="e">/sbin</text></svg><svg x="3196"><use xlink:href="#a"/><use xlink:href="#b" x="34.996"/><text y="1.67" class="c">[~]</text><text x="3.006" y="1.67" class="d">$</text><text x="5.01" y="1.67" class="e">LD_PRELOAD=libdesock.so</text><text x="29.058" y="1.67" class="e">/sbin/</text></svg><svg x="3290"><use xlink:href="#a"/><use xlink:href="#b" x="35.996"/><text y="1.67" class="c">[~]</text><text x="3.006" y="1.67" class="d">$</text><text x="5.01" y="1.67" class="e">LD_PRELOAD=libdesock.so</text><text x="29.058" y="1.67" class="e">/sbin/n</text></svg><svg x="3384"><use xlink:href="#a"/><use xlink:href="#b" x="36.996"/><text y="1.67" class="c">[~]</text><text x="3.006" y="1.67" class="d">$</text><text x="5.01" y="1.67" class="e">LD_PRELOAD=libdesock.so</text><text x="29.058" y="1.67" class="e">/sbin/ng</text></svg><svg x="3478"><use xlink:href="#a"/><use xlink:href="#b" x="37.996"/><text y="1.67" class="c">[~]</text><text x="3.006" y="1.67" class="d">$</text><text x="5.01" y="1.67" class="e">LD_PRELOAD=libdesock.so</text><text x="29.058" y="1.67" class="e">/sbin/ngi</text></svg><svg x="3572"><use xlink:href="#a"/><use xlink:href="#b" x="38.996"/><text y="1.67" class="c">[~]</text><text x="3.006" y="1.67" class="d">$</text><text x="5.01" y="1.67" class="e">LD_PRELOAD=libdesock.so</text><text x="29.058" y="1.67" class="e">/sbin/ngin</text></svg><svg x="3666"><use xlink:href="#a"/><use xlink:href="#b" x="39.996"/><use xlink:href="#3"/></svg><svg x="3760"><use xlink:href="#a"/><use xlink:href="#b" x="-.004" y="2.146"/><use xlink:href="#3"/></svg><svg x="3854"><use xlink:href="#a"/><use xlink:href="#b" x="-.004" y="2.146"/><use xlink:href="#3"/></svg><svg x="3948"><use xlink:href="#a"/><use xlink:href="#b" x="-.004" y="4.317"/><use xlink:href="#3"/><use xlink:href="#4" y="2.171"/></svg><svg x="4042"><use xlink:href="#a"/><use xlink:href="#b" x="-.004" y="13.001"/><use xlink:href="#3"/><use xlink:href="#4" y="2.171"/><use xlink:href="#5" y="4.342"/><use xlink:href="#6" y="6.513"/><use xlink:href="#7" y="8.684"/><use xlink:href="#7" y="10.855"/></svg><svg x="4136"><use xlink:href="#a"/><use xlink:href="#b" x=".996" y="13.001"/><use xlink:href="#3"/><use xlink:href="#4" y="2.171"/><use xlink:href="#5" y="4.342"/><use xlink:href="#6" y="6.513"/><use xlink:href="#7" y="8.684"/><use xlink:href="#7" y="10.855"/><text y="14.696" class="e">G</text></svg><svg x="4230"><use xlink:href="#a"/><use xlink:href="#b" x="1.996" y="13.001"/><use xlink:href="#3"/><use xlink:href="#4" y="2.171"/><use xlink:href="#5" y="4.342"/><use xlink:href="#6" y="6.513"/><use xlink:href="#7" y="8.684"/><use xlink:href="#7" y="10.855"/><text y="14.696" class="e">GE</text></svg><svg x="4324"><use xlink:href="#a"/><use xlink:href="#b" x="2.996" y="13.001"/><use xlink:href="#3"/><use xlink:href="#4" y="2.171"/><use xlink:href="#5" y="4.342"/><use xlink:href="#6" y="6.513"/><use xlink:href="#7" y="8.684"/><use xlink:href="#7" y="10.855"/><use xlink:href="#8" y="13.026"/></svg><svg x="4418"><use xlink:href="#a"/><use xlink:href="#b" x="3.996" y="13.001"/><use xlink:href="#3"/><use xlink:href="#4" y="2.171"/><use xlink:href="#5" y="4.342"/><use xlink:href="#6" y="6.513"/><use xlink:href="#7" y="8.684"/><use xlink:href="#7" y="10.855"/><use xlink:href="#8" y="13.026"/></svg><svg x="4512"><use xlink:href="#a"/><use xlink:href="#b" x="4.996" y="13.001"/><use xlink:href="#3"/><use xlink:href="#4" y="2.171"/><use xlink:href="#5" y="4.342"/><use xlink:href="#6" y="6.513"/><use xlink:href="#7" y="8.684"/><use xlink:href="#7" y="10.855"/><text y="14.696" class="e">GET</text><text x="4.008" y="14.696" class="e">w</text></svg><svg x="4606"><use xlink:href="#a"/><use xlink:href="#b" x="5.996" y="13.001"/><use xlink:href="#3"/><use xlink:href="#4" y="2.171"/><use xlink:href="#5" y="4.342"/><use xlink:href="#6" y="6.513"/><use xlink:href="#7" y="8.684"/><use xlink:href="#7" y="10.855"/><text y="14.696" class="e">GET</text><text x="4.008" y="14.696" class="e">wh</text></svg><svg x="4700"><use xlink:href="#a"/><use xlink:href="#b" x="6.996" y="13.001"/><use xlink:href="#3"/><use xlink:href="#4" y="2.171"/><use xlink:href="#5" y="4.342"/><use xlink:href="#6" y="6.513"/><use xlink:href="#7" y="8.684"/><use xlink:href="#7" y="10.855"/><text y="14.696" class="e">GET</text><text x="4.008" y="14.696" class="e">wha</text></svg><svg x="4794"><use xlink:href="#a"/><use xlink:href="#b" x="7.996" y="13.001"/><use xlink:href="#3"/><use xlink:href="#4" y="2.171"/><use xlink:href="#5" y="4.342"/><use xlink:href="#6" y="6.513"/><use xlink:href="#7" y="8.684"/><use xlink:href="#7" y="10.855"/><text y="14.696" class="e">GET</text><text x="4.008" y="14.696" class="e">what</text></svg><svg x="4888"><use xlink:href="#a"/><use xlink:href="#b" x="8.996" y="13.001"/><use xlink:href="#3"/><use xlink:href="#4" y="2.171"/><use xlink:href="#5" y="4.342"/><use xlink:href="#6" y="6.513"/><use xlink:href="#7" y="8.684"/><use xlink:href="#7" y="10.855"/><text y="14.696" class="e">GET</text><text x="4.008" y="14.696" class="e">whate</text></svg><svg x="4982"><use xlink:href="#a"/><use xlink:href="#b" x="9.996" y="13.001"/><use xlink:href="#3"/><use xlink:href="#4" y="2.171"/><use xlink:href="#5" y="4.342"/><use xlink:href="#6" y="6.513"/><use xlink:href="#7" y="8.684"/><use xlink:href="#7" y="10.855"/><text y="14.696" class="e">GET</text><text x="4.008" y="14.696" class="e">whatev</text></svg><svg x="5076"><use xlink:href="#a"/><use xlink:href="#b" x="10.996" y="13.001"/><use xlink:href="#3"/><use xlink:href="#4" y="2.171"/><use xlink:href="#5" y="4.342"/><use xlink:href="#6" y="6.513"/><use xlink:href="#7" y="8.684"/><use xlink:href="#7" y="10.855"/><text y="14.696" class="e">GET</text><text x="4.008" y="14.696" class="e">whateve</text></svg><svg x="5170"><use xlink:href="#a"/><use xlink:href="#b" x="11.996" y="13.001"/><use xlink:href="#3"/><use xlink:href="#4" y="2.171"/><use xlink:href="#5" y="4.342"/><use xlink:href="#6" y="6.513"/><use xlink:href="#7" y="8.684"/><use xlink:href="#7" y="10.855"/><text y="14.696" class="e">GET</text><text x="4.008" y="14.696" class="e">whatever</text></svg><svg x="5264"><use xlink:href="#a"/><use xlink:href="#b" x="12.996" y="13.001"/><use xlink:href="#3"/><use xlink:href="#4" y="2.171"/><use xlink:href="#5" y="4.342"/><use xlink:href="#6" y="6.513"/><use xlink:href="#7" y="8.684"/><use xlink:href="#7" y="10.855"/><text y="14.696" class="e">GET</text><text x="4.008" y="14.696" class="e">whatever.</text></svg><svg x="5358"><use xlink:href="#a"/><use xlink:href="#b" x="13.996" y="13.001"/><use xlink:href="#3"/><use xlink:href="#4" y="2.171"/><use xlink:href="#5" y="4.342"/><use xlink:href="#6" y="6.513"/><use xlink:href="#7" y="8.684"/><use xlink:href="#7" y="10.855"/><text y="14.696" class="e">GET</text><text x="4.008" y="14.696" class="e">whatever..</text></svg><svg x="5452"><use xlink:href="#a"/><use xlink:href="#b" x="14.996" y="13.001"/><use xlink:href="#3"/><use xlink:href="#4" y="2.171"/><use xlink:href="#5" y="4.342"/><use xlink:href="#6" y="6.513"/><use xlink:href="#7" y="8.684"/><use xlink:href="#7" y="10.855"/><use xlink:href="#9" y="13.026"/></svg><svg x="5546"><use xlink:href="#a"/><use xlink:href="#b" x="-.004" y="15.172"/><use xlink:href="#3"/><use xlink:href="#4" y="2.171"/><use xlink:href="#5" y="4.342"/><use xlink:href="#6" y="6.513"/><use xlink:href="#7" y="8.684"/><use xlink:href="#7" y="10.855"/><use xlink:href="#9" y="13.026"/></svg><svg x="5640"><use xlink:href="#a"/><use xlink:href="#b" x="-.004" y="45.566"/><use xlink:href="#3"/><use xlink:href="#4" y="2.171"/><use xlink:href="#5" y="4.342"/><use xlink:href="#6" y="6.513"/><use xlink:href="#7" y="8.684"/><use xlink:href="#7" y="10.855"/><use xlink:href="#9" y="13.026"/><use xlink:href="#10" y="15.197"/><use xlink:href="#11" y="17.368"/><use xlink:href="#12" y="19.539"/><use xlink:href="#13" y="21.71"/><use xlink:href="#14" y="23.881"/><use xlink:href="#15" y="26.052"/><use xlink:href="#16" y="30.394"/><use xlink:href="#17" y="32.565"/><use xlink:href="#18" y="34.736"/><use xlink:href="#19" y="36.907"/><use xlink:href="#20" y="39.078"/><use xlink:href="#21" y="41.249"/><use xlink:href="#22" y="43.42"/></svg><svg x="5734"><use xlink:href="#a"/><use xlink:href="#b" x="-.004" y="45.566"/><use xlink:href="#3"/><use xlink:href="#4" y="2.171"/><use xlink:href="#5" y="4.342"/><use xlink:href="#6" y="6.513"/><use xlink:href="#7" y="8.684"/><use xlink:href="#7" y="10.855"/><use xlink:href="#9" y="13.026"/><use xlink:href="#10" y="15.197"/><use xlink:href="#11" y="17.368"/><use xlink:href="#12" y="19.539"/><use xlink:href="#13" y="21.71"/><use xlink:href="#14" y="23.881"/><use xlink:href="#15" y="26.052"/><use xlink:href="#16" y="30.394"/><use xlink:href="#17" y="32.565"/><use xlink:href="#18" y="34.736"/><use xlink:href="#19" y="36.907"/><use xlink:href="#20" y="39.078"/><use xlink:href="#21" y="41.249"/><use xlink:href="#22" y="43.42"/></svg><svg x="5828"><use xlink:href="#a"/><use xlink:href="#b" x="-.004" y="45.566"/><use xlink:href="#3"/><use xlink:href="#4" y="2.171"/><use xlink:href="#5" y="4.342"/><use xlink:href="#6" y="6.513"/><use xlink:href="#7" y="8.684"/><use xlink:href="#7" y="10.855"/><use xlink:href="#9" y="13.026"/><use xlink:href="#10" y="15.197"/><use xlink:href="#11" y="17.368"/><use xlink:href="#12" y="19.539"/><use xlink:href="#13" y="21.71"/><use xlink:href="#14" y="23.881"/><use xlink:href="#15" y="26.052"/><use xlink:href="#16" y="30.394"/><use xlink:href="#17" y="32.565"/><use xlink:href="#18" y="34.736"/><use xlink:href="#19" y="36.907"/><use xlink:href="#20" y="39.078"/><use xlink:href="#21" y="41.249"/><use xlink:href="#22" y="43.42"/></svg><svg x="5922"><use xlink:href="#a"/><use xlink:href="#b" x="4.996" y="45.566"/><use xlink:href="#3"/><use xlink:href="#4" y="2.171"/><use xlink:href="#5" y="4.342"/><use xlink:href="#6" y="6.513"/><use xlink:href="#7" y="8.684"/><use xlink:href="#7" y="10.855"/><use xlink:href="#9" y="13.026"/><use xlink:href="#10" y="15.197"/><use xlink:href="#11" y="17.368"/><use xlink:href="#12" y="19.539"/><use xlink:href="#13" y="21.71"/><use xlink:href="#14" y="23.881"/><use xlink:href="#15" y="26.052"/><use xlink:href="#16" y="30.394"/><use xlink:href="#17" y="32.565"/><use xlink:href="#18" y="34.736"/><use xlink:href="#19" y="36.907"/><use xlink:href="#20" y="39.078"/><use xlink:href="#21" y="41.249"/><use xlink:href="#22" y="43.42"/><use xlink:href="#1" y="45.591"/></svg><svg x="6016"><use xlink:href="#a"/><use xlink:href="#b" x="4.996" y="45.566"/><use xlink:href="#3"/><use xlink:href="#4" y="2.171"/><use xlink:href="#5" y="4.342"/><use xlink:href="#6" y="6.513"/><use xlink:href="#7" y="8.684"/><use xlink:href="#7" y="10.855"/><use xlink:href="#9" y="13.026"/><use xlink:href="#10" y="15.197"/><use xlink:href="#11" y="17.368"/><use xlink:href="#12" y="19.539"/><use xlink:href="#13" y="21.71"/><use xlink:href="#14" y="23.881"/><use xlink:href="#15" y="26.052"/><use xlink:href="#16" y="30.394"/><use xlink:href="#17" y="32.565"/><use xlink:href="#18" y="34.736"/><use xlink:href="#19" y="36.907"/><use xlink:href="#20" y="39.078"/><use xlink:href="#21" y="41.249"/><use xlink:href="#22" y="43.42"/><use xlink:href="#1" y="45.591"/></svg><svg x="6110"><use xlink:href="#a"/><use xlink:href="#b" x="4.996" y="45.566"/><use xlink:href="#3"/><use xlink:href="#4" y="2.171"/><use xlink:href="#5" y="4.342"/><use xlink:href="#6" y="6.513"/><use xlink:href="#7" y="8.684"/><use xlink:href="#7" y="10.855"/><use xlink:href="#9" y="13.026"/><use xlink:href="#10" y="15.197"/><use xlink:href="#11" y="17.368"/><use xlink:href="#12" y="19.539"/><use xlink:href="#13" y="21.71"/><use xlink:href="#14" y="23.881"/><use xlink:href="#15" y="26.052"/><use xlink:href="#16" y="30.394"/><use xlink:href="#17" y="32.565"/><use xlink:href="#18" y="34.736"/><use xlink:href="#19" y="36.907"/><use xlink:href="#20" y="39.078"/><use xlink:href="#21" y="41.249"/><use xlink:href="#22" y="43.42"/><use xlink:href="#1" y="45.591"/></svg><svg x="6204"><use xlink:href="#a"/><use xlink:href="#b" x="4.996" y="45.566"/><use xlink:href="#3"/><use xlink:href="#4" y="2.171"/><use xlink:href="#5" y="4.342"/><use xlink:href="#6" y="6.513"/><use xlink:href="#7" y="8.684"/><use xlink:href="#7" y="10.855"/><use xlink:href="#9" y="13.026"/><use xlink:href="#10" y="15.197"/><use xlink:href="#11" y="17.368"/><use xlink:href="#12" y="19.539"/><use xlink:href="#13" y="21.71"/><use xlink:href="#14" y="23.881"/><use xlink:href="#15" y="26.052"/><use xlink:href="#16" y="30.394"/><use xlink:href="#17" y="32.565"/><use xlink:href="#18" y="34.736"/><use xlink:href="#19" y="36.907"/><use xlink:href="#20" y="39.078"/><use xlink:href="#21" y="41.249"/><use xlink:href="#22" y="43.42"/><use xlink:href="#1" y="45.591"/></svg><svg x="6298"><use xlink:href="#a"/><use xlink:href="#b" x="4.996" y="45.566"/><use xlink:href="#3"/><use xlink:href="#4" y="2.171"/><use xlink:href="#5" y="4.342"/><use xlink:href="#6" y="6.513"/><use xlink:href="#7" y="8.684"/><use xlink:href="#7" y="10.855"/><use xlink:href="#9" y="13.026"/><use xlink:href="#10" y="15.197"/><use xlink:href="#11" y="17.368"/><use xlink:href="#12" y="19.539"/><use xlink:href="#13" y="21.71"/><use xlink:href="#14" y="23.881"/><use xlink:href="#15" y="26.052"/><use xlink:href="#16" y="30.394"/><use xlink:href="#17" y="32.565"/><use xlink:href="#18" y="34.736"/><use xlink:href="#19" y="36.907"/><use xlink:href="#20" y="39.078"/><use xlink:href="#21" y="41.249"/><use xlink:href="#22" y="43.42"/><use xlink:href="#1" y="45.591"/></svg><svg x="6392"><use xlink:href="#a"/><use xlink:href="#b" x="4.996" y="45.566"/><use xlink:href="#3"/><use xlink:href="#4" y="2.171"/><use xlink:href="#5" y="4.342"/><use xlink:href="#6" y="6.513"/><use xlink:href="#7" y="8.684"/><use xlink:href="#7" y="10.855"/><use xlink:href="#9" y="13.026"/><use xlink:href="#10" y="15.197"/><use xlink:href="#11" y="17.368"/><use xlink:href="#12" y="19.539"/><use xlink:href="#13" y="21.71"/><use xlink:href="#14" y="23.881"/><use xlink:href="#15" y="26.052"/><use xlink:href="#16" y="30.394"/><use xlink:href="#17" y="32.565"/><use xlink:href="#18" y="34.736"/><use xlink:href="#19" y="36.907"/><use xlink:href="#20" y="39.078"/><use xlink:href="#21" y="41.249"/><use xlink:href="#22" y="43.42"/><use xlink:href="#1" y="45.591"/></svg></svg></g></g></svg></svg>